<?xml version="1.0" encoding="UTF-8" standalone="no"?>
<svg
   xmlns:dc="http://purl.org/dc/elements/1.1/"
   xmlns:cc="http://creativecommons.org/ns#"
   xmlns:rdf="http://www.w3.org/1999/02/22-rdf-syntax-ns#"
   xmlns:svg="http://www.w3.org/2000/svg"
   xmlns="http://www.w3.org/2000/svg"
   viewBox="0 0 676 436"
   height="436"
   width="676"
   xml:space="preserve"
   id="svg29"
   version="1.1"><metadata
     id="metadata35"><rdf:RDF><cc:Work
         rdf:about=""><dc:format>image/svg+xml</dc:format><dc:type
           rdf:resource="http://purl.org/dc/dcmitype/StillImage" /><dc:title></dc:title></cc:Work></rdf:RDF></metadata><defs
     id="defs33" /><g
     transform="matrix(0,1.3333333,1.3333333,0,0,0)"
     id="g37"><g
       transform="scale(0.1)"
       id="g39"><path
         id="path41"
         style="fill:none;stroke:#000000;stroke-width:11.25;stroke-linecap:butt;stroke-linejoin:miter;stroke-miterlimit:10;stroke-dasharray:none;stroke-opacity:1"
         d="m 2180,3530 h 720 v 810 h -720 z" /><g
         transform="scale(10)"
         id="g43"><text
           id="text47"
           style="font-variant:normal;font-weight:bold;font-size:7.875px;font-family:Helvetica;-inkscape-font-specification:Helvetica-Bold;writing-mode:lr-tb;fill:#000000;fill-opacity:1;fill-rule:nonzero;stroke:none"
           transform="matrix(0,1,1,0,231.5,367.562)"><tspan
             id="tspan45"
             y="0"
             x="0 5.68575 10.06425 13.127625 15.75 20.561625 24.940125 30.625875 35.4375 38.500874">UartTxCore</tspan></text>
<text
           id="text55"
           style="font-variant:normal;font-weight:normal;font-size:7.875px;font-family:Helvetica;-inkscape-font-specification:Helvetica;writing-mode:lr-tb;fill:#000000;fill-opacity:1;fill-rule:nonzero;stroke:none"
           transform="matrix(0,1,1,0,254,357.5003)"><tspan
             id="tspan49"
             y="0"
             x="0 5.252625 7.441875 10.06425 14.44275 18.821251">Stream</tspan><tspan
             id="tspan51"
             y="9.5625"
             x="0 5.252625 9.6311255">Bus</tspan><tspan
             id="tspan53"
             y="13.5"
             x="61.495701 63.684952 67.622452">txd</tspan></text>
</g><path
         id="path57"
         style="fill:none;stroke:#000000;stroke-width:11.25;stroke-linecap:butt;stroke-linejoin:miter;stroke-miterlimit:10;stroke-dasharray:none;stroke-opacity:1"
         d="m 2180,1820 h 720 v 720 h -720 z" /><g
         transform="scale(10)"
         id="g59"><text
           id="text63"
           style="font-variant:normal;font-weight:bold;font-size:7.875px;font-family:Helvetica;-inkscape-font-specification:Helvetica-Bold;writing-mode:lr-tb;fill:#000000;fill-opacity:1;fill-rule:nonzero;stroke:none"
           transform="matrix(0,1,1,0,231.5,196.124)"><tspan
             id="tspan61"
             y="0"
             x="0 5.68575 10.06425 13.127625 15.75 21.435749 25.814251 31.5 36.311626 39.375">UartRxCore</tspan></text>
<text
           id="text71"
           style="font-variant:normal;font-weight:normal;font-size:7.875px;font-family:Helvetica;-inkscape-font-specification:Helvetica;writing-mode:lr-tb;fill:#000000;fill-opacity:1;fill-rule:nonzero;stroke:none"
           transform="matrix(0,1,1,0,267.5,186.49978)"><tspan
             id="tspan65"
             y="0"
             x="0 2.622375 6.559875">rxd</tspan><tspan
             id="tspan67"
             y="-9"
             x="46.376999 51.188625 52.936874 57.315376">Flow</tspan><tspan
             id="tspan69"
             y="0.5625"
             x="49.432468 54.685097 59.063595">Bus</tspan></text>
</g><path
         id="path73"
         style="fill:none;stroke:#000000;stroke-width:11.25;stroke-linecap:butt;stroke-linejoin:miter;stroke-miterlimit:10;stroke-dasharray:none;stroke-opacity:1"
         d="M 920,1640 H 3080 V 4700 H 920 Z" /><g
         transform="scale(10)"
         id="g75"><text
           id="text79"
           style="font-variant:normal;font-weight:bold;font-size:7.875px;font-family:Helvetica;-inkscape-font-specification:Helvetica-Bold;writing-mode:lr-tb;fill:#000000;fill-opacity:1;fill-rule:nonzero;stroke:none"
           transform="matrix(0,1,1,0,105.5,299.282)"><tspan
             id="tspan77"
             y="0"
             x="0 5.68575 10.06425 13.127625 15.75 21.435749 26.247375 31.059">UartApb3</tspan></text>
<text
           id="text83"
           style="font-variant:normal;font-weight:normal;font-size:7.875px;font-family:Helvetica;-inkscape-font-specification:Helvetica;writing-mode:lr-tb;fill:#000000;fill-opacity:1;fill-rule:nonzero;stroke:none"
           transform="matrix(0,1,1,0,159.5,173)"><tspan
             id="tspan81"
             y="0"
             x="0 5.252625 10.50525 15.757875 20.136375 22.325624 27.578251 31.956751">APB3 Bus</tspan></text>
</g><path
         id="path85"
         style="fill:none;stroke:#000000;stroke-width:5.625;stroke-linecap:butt;stroke-linejoin:miter;stroke-miterlimit:1;stroke-dasharray:none;stroke-opacity:1"
         d="m 2540,2540 v 315 h -495" /><path
         id="path87"
         style="fill:#ffffff;fill-opacity:1;fill-rule:nonzero;stroke:none"
         d="m 2000,2855 45,16.88 v -33.75" /><path
         id="path89"
         style="fill:#000000;fill-opacity:1;fill-rule:nonzero;stroke:none"
         d="m 2000,2855 45,16.88 v -33.75" /><path
         id="path91"
         style="fill:none;stroke:#000000;stroke-width:5.625;stroke-linecap:butt;stroke-linejoin:miter;stroke-miterlimit:1;stroke-dasharray:none;stroke-opacity:1"
         d="m 2045,3350 h 495 v 135" /><path
         id="path93"
         style="fill:#ffffff;fill-opacity:1;fill-rule:nonzero;stroke:none"
         d="m 2000,3350 45,16.88 v -33.75" /><path
         id="path95"
         style="fill:#000000;fill-opacity:1;fill-rule:nonzero;stroke:none"
         d="m 2000,3350 45,16.88 v -33.75" /><path
         id="path97"
         style="fill:#ffffff;fill-opacity:1;fill-rule:nonzero;stroke:none"
         d="m 2540,3530 16.88,-45 h -33.75" /><path
         id="path99"
         style="fill:#000000;fill-opacity:1;fill-rule:nonzero;stroke:none"
         d="m 2540,3530 16.88,-45 h -33.75" /><path
         id="path101"
         style="fill:none;stroke:#000000;stroke-width:5.625;stroke-linecap:butt;stroke-linejoin:miter;stroke-miterlimit:1;stroke-dasharray:none;stroke-opacity:1"
         d="m 2630,1640 v 135" /><path
         id="path103"
         style="fill:#ffffff;fill-opacity:1;fill-rule:nonzero;stroke:none"
         d="m 2630,1820 16.88,-45 h -33.75" /><path
         id="path105"
         style="fill:#000000;fill-opacity:1;fill-rule:nonzero;stroke:none"
         d="m 2630,1820 16.88,-45 h -33.75" /><path
         id="path107"
         style="fill:none;stroke:#000000;stroke-width:5.625;stroke-linecap:butt;stroke-linejoin:miter;stroke-miterlimit:1;stroke-dasharray:none;stroke-opacity:1"
         d="m 2630,4340 v 315" /><path
         id="path109"
         style="fill:#ffffff;fill-opacity:1;fill-rule:nonzero;stroke:none"
         d="m 2630,4700 16.88,-45 h -33.75" /><path
         id="path111"
         style="fill:#000000;fill-opacity:1;fill-rule:nonzero;stroke:none"
         d="m 2630,4700 16.88,-45 h -33.75" /><g
         transform="scale(10)"
         id="g113"><text
           id="text145"
           style="font-variant:normal;font-weight:normal;font-size:7.875px;font-family:Helvetica;-inkscape-font-specification:Helvetica;writing-mode:lr-tb;fill:#000000;fill-opacity:1;fill-rule:nonzero;stroke:none"
           transform="matrix(0,1,1,0,267.5,258.5)"><tspan
             id="tspan115"
             y="0"
             x="0 2.622375 4.811625 8.7491245 13.127625 14.875875 16.624125">- valid</tspan><tspan
             id="tspan117"
             y="9.5625"
             x="0 2.622375 4.811625 9.1901255 13.568625 17.506124 19.254375 23.632875 28.011375">- payload</tspan><tspan
             id="tspan119"
             y="0"
             x="54 56.622375 58.811626 62.749126 67.127625 68.875877 70.624123">- valid</tspan><tspan
             id="tspan121"
             y="9.5625"
             x="54 56.622375 58.811626 63.190125 67.568626 71.506126 73.254372 77.632874 82.011375">- payload</tspan><tspan
             id="tspan123"
             y="19.125"
             x="54 56.622375 58.811626 61.433998 65.8125 70.191002 74.569504">- ready</tspan><tspan
             id="tspan125"
             y="-243"
             x="-171 -168.37762 -166.18837 -160.93575 -155.25 -150.87151 -145.61888 -143.42963 -140.80725 -135.12151 -130.743 -125.49037">- PCLK (CLK)</tspan><tspan
             id="tspan127"
             y="-233.4375"
             x="-171 -168.37762 -166.18837 -163.56599 -158.31337 -152.62762 -147.375 -142.12238 -136.86975 -132.05812">- (PRESET)</tspan><tspan
             id="tspan129"
             y="-223.875"
             x="-171 -168.37762 -166.18837 -160.93575 -155.68312 -149.99738 -144.31163">- PADDR</tspan><tspan
             id="tspan131"
             y="-214.3125"
             x="-171 -168.37762 -166.18837 -160.93575 -155.68312 -150.4305">- PSEL</tspan><tspan
             id="tspan133"
             y="-204.75"
             x="-171 -168.37762 -166.18837 -160.93575 -155.68312 -149.99738 -144.74475 -139.49213 -135.11363">- PENABLE</tspan><tspan
             id="tspan135"
             y="-195.1875"
             x="-171 -168.37762 -166.18837 -160.93575 -153.50175 -147.81599 -145.62675 -140.81512">- PWRITE</tspan><tspan
             id="tspan137"
             y="-185.625"
             x="-171 -168.37762 -166.18837 -160.93575 -153.50175 -147.81599 -142.56337 -137.75175">- PWDATA</tspan><tspan
             id="tspan139"
             y="-176.0625"
             x="-171 -168.37762 -166.18837 -160.93575 -155.25 -149.99738 -144.74475 -139.05901">- PREADY</tspan><tspan
             id="tspan141"
             y="-166.5"
             x="-171 -168.37762 -166.18837 -160.93575 -155.25 -149.56425 -144.31163 -139.5">- PRDATA</tspan><tspan
             id="tspan143"
             y="-156.9375"
             x="-171 -168.37762 -166.18837 -160.93575 -155.68312 -151.30463 -146.052 -140.79938 -135.11363">- PSLVERR</tspan></text>
</g><path
         id="path147"
         style="fill:none;stroke:#000000;stroke-width:11.25;stroke-linecap:butt;stroke-linejoin:miter;stroke-miterlimit:10;stroke-dasharray:none;stroke-opacity:1"
         d="M 20,20 H 3260 V 5060 H 20 Z" /><g
         transform="scale(10)"
         id="g149"><text
           id="text153"
           style="font-variant:normal;font-weight:bold;font-size:7.875px;font-family:Helvetica;-inkscape-font-specification:Helvetica-Bold;writing-mode:lr-tb;fill:#000000;fill-opacity:1;fill-rule:nonzero;stroke:none"
           transform="matrix(0,1,1,0,15.5,225.439)"><tspan
             id="tspan151"
             y="0"
             x="0 5.68575 10.06425 13.127625 15.75 20.561625 25.373249 31.059 35.870625 40.682251 45.060749">UartToUpper</tspan></text>
<text
           id="text157"
           style="font-variant:normal;font-weight:normal;font-size:7.875px;font-family:Helvetica;-inkscape-font-specification:Helvetica;writing-mode:lr-tb;fill:#000000;fill-opacity:1;fill-rule:nonzero;stroke:none"
           transform="matrix(0,1,1,0,258.5,490.996)"><tspan
             id="tspan155"
             y="0"
             x="0 2.18925 6.12675 -484.496 -481.87363 -477.93613">txdrxd</tspan></text>
</g><path
         id="path159"
         style="fill:none;stroke:#000000;stroke-width:5.625;stroke-linecap:butt;stroke-linejoin:miter;stroke-miterlimit:1;stroke-dasharray:none;stroke-opacity:1"
         d="M 2630,20 V 1595" /><path
         id="path161"
         style="fill:#ffffff;fill-opacity:1;fill-rule:nonzero;stroke:none"
         d="m 2630,1640 16.88,-45 h -33.75" /><path
         id="path163"
         style="fill:#000000;fill-opacity:1;fill-rule:nonzero;stroke:none"
         d="m 2630,1640 16.88,-45 h -33.75" /><path
         id="path165"
         style="fill:none;stroke:#000000;stroke-width:5.625;stroke-linecap:butt;stroke-linejoin:miter;stroke-miterlimit:1;stroke-dasharray:none;stroke-opacity:1"
         d="m 2630,4700 v 315" /><path
         id="path167"
         style="fill:#ffffff;fill-opacity:1;fill-rule:nonzero;stroke:none"
         d="m 2630,5060 16.88,-45 h -33.75" /><path
         id="path169"
         style="fill:#000000;fill-opacity:1;fill-rule:nonzero;stroke:none"
         d="m 2630,5060 16.88,-45 h -33.75" /><g
         transform="scale(10)"
         id="g171"><text
           id="text175"
           style="font-variant:normal;font-weight:normal;font-size:7.875px;font-family:Helvetica;-inkscape-font-specification:Helvetica;writing-mode:lr-tb;fill:#000000;fill-opacity:1;fill-rule:nonzero;stroke:none"
           transform="matrix(0,1,1,0,249.5,399.302)"><tspan
             id="tspan173"
             y="0"
             x="0 2.18925 6.12675 10.50525 13.127625 17.506124 21.884624 26.263124">tx_ready</tspan></text>
</g><path
         id="path177"
         style="fill:none;stroke:#000000;stroke-width:5.625;stroke-linecap:butt;stroke-linejoin:miter;stroke-miterlimit:1;stroke-dasharray:none;stroke-opacity:1"
         d="m 2450,4340 v 180 h -810 v -765" /><path
         id="path179"
         style="fill:#ffffff;fill-opacity:1;fill-rule:nonzero;stroke:none"
         d="m 1640,3710 -16.87,45 h 33.75" /><path
         id="path181"
         style="fill:#000000;fill-opacity:1;fill-rule:nonzero;stroke:none"
         d="m 1640,3710 -16.87,45 h 33.75" /><path
         id="path183"
         style="fill:none;stroke:#000000;stroke-width:5.625;stroke-linecap:butt;stroke-linejoin:miter;stroke-miterlimit:10;stroke-dasharray:none;stroke-opacity:1"
         d="m 1280,2630 h 720 v 1080 h -720 z" /><g
         transform="scale(10)"
         id="g185"><text
           id="text189"
           style="font-variant:normal;font-weight:bold;font-size:7.875px;font-family:Helvetica;-inkscape-font-specification:Helvetica-Bold;writing-mode:lr-tb;fill:#000000;fill-opacity:1;fill-rule:nonzero;stroke:none"
           transform="matrix(0,1,1,0,168.5,294.904)"><tspan
             id="tspan187"
             y="0"
             x="0 5.68575 10.938375 16.624125 21.002625 23.191875 28.0035 32.815125 37.626751 39.816002">APB3 Logic</tspan></text>
</g><path
         id="path191"
         style="fill:none;stroke:#000000;stroke-width:5.625;stroke-linecap:butt;stroke-linejoin:miter;stroke-miterlimit:1;stroke-dasharray:none;stroke-opacity:1"
         d="m 1640,1685 v 900" /><path
         id="path193"
         style="fill:#ffffff;fill-opacity:1;fill-rule:nonzero;stroke:none"
         d="m 1640,1640 -16.87,45 h 33.75" /><path
         id="path195"
         style="fill:#000000;fill-opacity:1;fill-rule:nonzero;stroke:none"
         d="m 1640,1640 -16.87,45 h 33.75" /><path
         id="path197"
         style="fill:#ffffff;fill-opacity:1;fill-rule:nonzero;stroke:none"
         d="m 1640,2630 16.88,-45 h -33.75" /><path
         id="path199"
         style="fill:#000000;fill-opacity:1;fill-rule:nonzero;stroke:none"
         d="m 1640,2630 16.88,-45 h -33.75" /><path
         id="path201"
         style="fill:none;stroke:#000000;stroke-width:5.625;stroke-linecap:butt;stroke-linejoin:miter;stroke-miterlimit:10;stroke-dasharray:none;stroke-opacity:1"
         d="m 1280,200 h 720 v 1080 h -720 z" /><g
         transform="scale(10)"
         id="g203"><text
           id="text207"
           style="font-variant:normal;font-weight:bold;font-size:7.875px;font-family:Helvetica;-inkscape-font-specification:Helvetica-Bold;writing-mode:lr-tb;fill:#000000;fill-opacity:1;fill-rule:nonzero;stroke:none"
           transform="matrix(0,1,1,0,168.5,35.4937)"><tspan
             id="tspan205"
             y="0"
             x="0 5.252625 9.6311255 14.44275 19.254375 23.632875 28.4445 32.823002 37.2015 39.390751 45.0765 49.888126 54.699749 57.322124 60.385502 65.197128 67.386375 69.575623 73.954124">Sequence Controller</tspan></text>
</g><path
         id="path209"
         style="fill:none;stroke:#000000;stroke-width:5.625;stroke-linecap:butt;stroke-linejoin:miter;stroke-miterlimit:1;stroke-dasharray:none;stroke-opacity:1"
         d="m 1640,1325 v 270" /><path
         id="path211"
         style="fill:#ffffff;fill-opacity:1;fill-rule:nonzero;stroke:none"
         d="m 1640,1280 -16.87,45 h 33.75" /><path
         id="path213"
         style="fill:#000000;fill-opacity:1;fill-rule:nonzero;stroke:none"
         d="m 1640,1280 -16.87,45 h 33.75" /><path
         id="path215"
         style="fill:#ffffff;fill-opacity:1;fill-rule:nonzero;stroke:none"
         d="m 1640,1640 16.88,-45 h -33.75" /><path
         id="path217"
         style="fill:#000000;fill-opacity:1;fill-rule:nonzero;stroke:none"
         d="m 1640,1640 16.88,-45 h -33.75" /><path
         id="path219"
         style="fill:none;stroke:#000000;stroke-width:5.625;stroke-linecap:butt;stroke-linejoin:miter;stroke-miterlimit:1;stroke-dasharray:11.25, 11.25;stroke-dashoffset:0;stroke-opacity:1"
         d="m 1145,1280 409.75,204.88" /><path
         id="path221"
         style="fill:#ffffff;fill-opacity:1;fill-rule:nonzero;stroke:none"
         d="m 1595,1505 -32.7,-35.22 -15.1,30.19" /><path
         id="path223"
         style="fill:#000000;fill-opacity:1;fill-rule:nonzero;stroke:none"
         d="m 1595,1505 -32.7,-35.22 -15.1,30.19" /><path
         id="path225"
         style="fill:none;stroke:#000000;stroke-width:5.625;stroke-linecap:butt;stroke-linejoin:miter;stroke-miterlimit:1;stroke-dasharray:none;stroke-opacity:1"
         d="m 1595,2180 90,-45" /><path
         id="path227"
         style="fill:none;stroke:#000000;stroke-width:5.625;stroke-linecap:butt;stroke-linejoin:miter;stroke-miterlimit:1;stroke-dasharray:none;stroke-opacity:1"
         d="m 2495,2630 90,-45" /><path
         id="path229"
         style="fill:none;stroke:#000000;stroke-width:5.625;stroke-linecap:butt;stroke-linejoin:miter;stroke-miterlimit:1;stroke-dasharray:none;stroke-opacity:1"
         d="m 2495,3440 90,-45" /></g></g></svg>